<?xml version="1.0" encoding="UTF-8" standalone="no"?>
<!-- Created with Inkscape (http://www.inkscape.org/) -->

<svg
   xmlns:dc="http://purl.org/dc/elements/1.1/"
   xmlns:cc="http://creativecommons.org/ns#"
   xmlns:rdf="http://www.w3.org/1999/02/22-rdf-syntax-ns#"
   xmlns:svg="http://www.w3.org/2000/svg"
   xmlns="http://www.w3.org/2000/svg"
   xmlns:sodipodi="http://sodipodi.sourceforge.net/DTD/sodipodi-0.dtd"
   xmlns:inkscape="http://www.inkscape.org/namespaces/inkscape"
   width="537.20148"
   height="154.87012"
   viewBox="0 0 142.13455 40.976053"
   version="1.1"
   id="svg8"
   inkscape:version="0.92.4 (5da689c313, 2019-01-14)"
   sodipodi:docname="mybudgetlogo30092023_v2.svg">
  <defs
     id="defs2" />
  <sodipodi:namedview
     id="base"
     pagecolor="#ffffff"
     bordercolor="#666666"
     borderopacity="1.0"
     inkscape:pageopacity="0.0"
     inkscape:pageshadow="2"
     inkscape:zoom="0.98994949"
     inkscape:cx="188.09752"
     inkscape:cy="130.66052"
     inkscape:document-units="mm"
     inkscape:current-layer="layer1"
     showgrid="false"
     inkscape:window-width="1920"
     inkscape:window-height="1009"
     inkscape:window-x="1912"
     inkscape:window-y="96"
     inkscape:window-maximized="1"
     units="px"
     fit-margin-top="0"
     fit-margin-left="0"
     fit-margin-right="0"
     fit-margin-bottom="0" />
  <metadata
     id="metadata5">
    <rdf:RDF>
      <cc:Work
         rdf:about="">
        <dc:format>image/svg+xml</dc:format>
        <dc:type
           rdf:resource="http://purl.org/dc/dcmitype/StillImage" />
        <dc:title></dc:title>
      </cc:Work>
    </rdf:RDF>
  </metadata>
  <g
     inkscape:label="Layer 1"
     inkscape:groupmode="layer"
     id="layer1"
     transform="translate(-31.956397,-145.49652)">
    <path
       style="fill:#000000;fill-opacity:1;stroke-width:0.66432709"
       d="m 119.28395,185.85418 c -0.73075,-0.42774 -1.43251,-0.86239 -1.55946,-0.96589 -0.12704,-0.10345 0.28807,-1.06658 0.92224,-2.14014 1.08388,-1.83488 1.2571,-1.89765 2.88812,-1.04657 2.94032,1.53425 6.41917,1.17025 7.99796,-0.83687 1.72696,-2.19545 1.76598,-3.15487 0.0919,-2.25893 -0.70675,0.37824 -2.52342,0.6877 -4.03706,0.6877 -7.67813,0 -9.41571,-10.39577 -2.44772,-14.64442 2.74877,-1.67603 6.45771,-1.66797 8.60195,0.0176 1.67119,1.3146 1.67659,1.3146 2.02037,0 0.27479,-1.05076 0.91083,-1.31809 3.13622,-1.31809 2.66882,0 2.7726,0.0753 2.3614,1.71367 -0.23652,0.94252 -0.99472,4.45514 -1.6848,7.80584 -1.60303,7.78331 -2.09229,8.98422 -4.64594,11.40372 -1.90764,1.80743 -2.56862,2.00681 -7.20838,2.17444 -3.04018,0.10972 -5.64601,-0.13032 -6.4368,-0.59312 z m 11.38788,-11.97837 c 1.10304,-0.8794 1.4477,-2.72115 0.82444,-4.40593 -0.8088,-2.18639 -4.81442,-2.06795 -6.29127,0.18605 -2.56463,3.91408 1.71076,7.21428 5.46683,4.2199 z m -80.810044,5.80298 c 0,-0.51884 0.74387,-4.38388 1.653043,-8.58899 1.722591,-7.96735 2.595702,-13.71912 2.082546,-13.71912 -0.164762,0 -1.845768,1.94317 -3.735589,4.31813 -1.936651,2.43383 -3.956235,4.31814 -4.628139,4.31814 -0.849742,0 -1.736353,-1.32284 -3.087199,-4.60609 -1.042306,-2.53334 -2.006233,-4.49493 -2.142065,-4.35912 -0.135836,0.13583 -0.738745,2.58225 -1.339808,5.4365 l -1.092839,5.18951 -2.823393,0.20438 c -1.552863,0.11224 -2.809158,-0.0372 -2.791768,-0.33216 0.01732,-0.29505 1.002489,-5.31959 2.189103,-11.16566 1.383203,-6.81461 2.44472,-10.6054 2.957851,-10.56282 0.440203,0.0367 1.622474,0.11324 2.627268,0.17074 1.646585,0.0939 2.051549,0.66444 4.10297,5.77953 1.251841,3.12138 2.495205,5.81067 2.763034,5.97621 0.26783,0.16546 2.625187,-2.38033 5.238572,-5.65748 3.920977,-4.91683 5.156322,-6.03436 7.066767,-6.39276 1.273339,-0.23878 2.493081,-0.25641 2.71054,-0.0389 0.217464,0.21744 -0.09566,2.86914 -0.695817,5.89263 -0.600162,3.02348 -1.090969,5.68125 -1.090685,5.9062 2.84e-4,0.22497 2.120482,0.56067 4.711553,0.74605 6.29235,0.45022 8.269898,1.87042 8.176437,5.87205 -0.05042,2.15913 -0.423105,3.10112 -1.513245,3.82495 -1.377245,0.91445 -1.391504,1.02093 -0.298477,2.2287 1.542168,1.70408 1.466235,5.42932 -0.147562,7.23989 -2.297684,2.57783 -5.076125,3.26299 -13.231987,3.26299 -6.175149,0 -7.661101,-0.18304 -7.661101,-0.94335 z m 15.325739,-4.75912 c 1.480468,-1.78386 -0.06955,-3.23711 -3.703789,-3.47258 -3.413318,-0.2212 -4.286235,0.39335 -4.304177,3.03001 -0.0093,1.36608 0.297384,1.49476 3.56228,1.49476 2.449102,0 3.847043,-0.33085 4.445686,-1.05219 z m 0.325059,-8.54167 c 2.129287,-1.58115 0.487332,-3.36053 -3.100984,-3.36053 -2.805467,0 -2.925034,0.0826 -3.125243,2.15907 -0.202475,2.09999 -0.137795,2.15905 2.364254,2.15905 1.414835,0 3.152722,-0.43091 3.861973,-0.95759 z m 11.344042,12.86727 c -1.455842,-1.14517 -1.74553,-1.89978 -1.721421,-4.48421 0.01607,-1.70903 0.400329,-4.90102 0.854191,-7.09331 l 0.825201,-3.98596 2.79961,-0.20439 c 3.203011,-0.23376 3.160556,-0.36874 1.83247,5.82709 -1.054958,4.92163 -0.532165,6.66724 1.996768,6.66724 2.134239,0 3.980196,-2.97868 4.561463,-7.36048 0.664261,-5.00745 0.857842,-5.26175 4.005598,-5.26175 h 2.811267 l -1.694906,8.63627 -1.694905,8.63625 h -2.792895 c -1.536091,0 -2.906833,-0.34183 -3.046092,-0.75959 -0.18997,-0.56991 -0.607631,-0.56991 -1.672505,0 -2.176002,1.16456 -5.126365,0.90675 -7.063844,-0.61729 z m 21.766759,-0.88183 c -1.842984,-1.84299 -2.258704,-2.76612 -2.258704,-5.01546 0,-5.23395 3.397195,-9.28111 8.249729,-9.82804 2.09871,-0.23652 3.50245,-0.0226 4.6091,0.70248 l 1.59127,1.04265 0.83764,-3.94719 0.83767,-3.9472 h 2.89869 c 1.59429,0 2.8987,0.12228 2.8987,0.272 0,0.14965 -1.04632,5.23782 -2.32514,11.30718 -1.27885,6.06936 -2.32515,11.17855 -2.32515,11.35373 0,0.69206 -5.22001,0.27019 -5.45709,-0.44103 -0.19007,-0.56991 -0.60765,-0.56991 -1.67252,0 -2.70182,1.44597 -5.46437,0.92068 -7.884195,-1.49912 z m 9.993685,-3.86806 c 1.23126,-1.75789 1.3489,-4.58633 0.23702,-5.69825 -1.13987,-1.1399 -3.87443,-0.9838 -5.29552,0.30225 -1.3791,1.24807 -1.62778,4.86519 -0.4177,6.07529 1.32138,1.32135 4.33693,0.94731 5.47625,-0.67929 z m 36.45256,5.15441 c -2.81696,-1.22519 -4.44522,-4.44557 -3.98451,-7.88058 0.73061,-5.44697 5.02317,-8.67109 10.96008,-8.23205 4.59244,0.33962 6.76607,2.34917 7.25757,6.70973 l 0.34577,3.06764 h -6.3975 c -5.17548,0 -6.39751,0.18581 -6.39751,0.97313 0,1.49232 2.53211,2.51988 5.04697,2.0481 3.16992,-0.5947 3.16115,-0.59656 4.13943,0.87681 0.79571,1.1984 0.68486,1.4309 -1.12958,2.36918 -2.46273,1.27355 -6.99694,1.30488 -9.84072,0.068 z m 9.09151,-9.85619 c 0,-2.48781 -4.30311,-3.34815 -6.20959,-1.24151 -1.48157,1.6371 -0.81487,2.10514 2.99867,2.10514 2.19172,0 3.21092,-0.27413 3.21092,-0.86363 z m 9.876,9.41099 c -1.26172,-1.26172 -1.37552,-1.91898 -1.03515,-5.97894 0.31077,-3.70671 0.20288,-4.5614 -0.57541,-4.5614 -0.98964,0 -1.26072,-1.75935 -0.55462,-3.59947 0.22171,-0.57794 0.9359,-1.05081 1.58691,-1.05081 0.82677,0 1.31515,-0.70105 1.61984,-2.32516 0.41986,-2.23815 0.54536,-2.32515 3.35378,-2.32515 h 2.91763 l -0.37733,2.32515 c -0.35112,2.16374 -0.25598,2.32516 1.37042,2.32516 1.28002,0 1.74774,0.34102 1.74774,1.2743 0,2.38475 -0.77793,3.37598 -2.64951,3.37598 -1.63587,0 -1.92953,0.34351 -2.61251,3.05582 -0.86426,3.43228 -0.0962,5.23034 1.95585,4.57903 0.88868,-0.28205 1.22411,0.0931 1.44823,1.62034 0.33509,2.28314 -0.31306,2.7027 -4.17533,2.7027 -1.77163,0 -3.05573,-0.45275 -4.02054,-1.41755 z M 66.997963,153.80463 c 0.145805,-1.24886 -0.206642,-3.14212 -0.797725,-4.28513 -1.365145,-2.6399 -1.33622,-3.44236 0.124086,-3.44236 0.714852,0 1.493032,0.82135 1.966427,2.07551 l 0.783418,2.07551 1.746426,-2.07551 c 0.960536,-1.14153 2.335544,-2.07551 3.055573,-2.07551 1.119655,0 0.930948,0.45672 -1.303763,3.15555 -1.437098,1.73554 -2.805851,3.97765 -3.041675,4.98244 -0.269486,1.14823 -0.868083,1.82692 -1.611366,1.82692 -0.951529,0 -1.131564,-0.43719 -0.921396,-2.23742 z"
       id="path4542"
       inkscape:connector-curvature="0" />
  </g>
</svg>
